<svg viewBox="0 0 1440 198" fill="none"
	xmlns="http://www.w3.org/2000/svg">
	<path d="M15 15V197.07H35.91V52.23H36.675L99.66 197.07H118.53L181.515 52.23H182.28V197.07H203.19V15H177.18L109.605 170.295H108.84L41.01 15H15Z" fill="black"/>
	<path d="M293.163 15L221.508 197.07H243.948L263.328 146.07H346.968L366.348 197.07H389.043L317.388 15H293.163ZM269.958 128.475L304.893 37.44H305.913L340.338 128.475H269.958Z" fill="black"/>
	<path d="M505.126 25.455H439.081V18.825H511.756V25.455H525.016V32.085H531.646V38.715H538.276V45.345H544.906V38.715H551.536V18.825H558.166V94.815H551.536V78.24H544.906V71.61H538.276V58.35H531.646V51.72H525.016V45.09H518.386V38.46H511.756V31.83H505.126V25.455ZM452.341 190.44H525.016V197.07H445.711V190.44H439.081V183.81H425.821V177.18H419.191V170.55H412.561V177.18H405.931V197.07H399.301V131.025H405.931V137.655H412.561V144.285H419.191V157.545H425.821V164.175H432.451V170.805H439.081V177.435H445.711V184.065H452.341V190.44ZM564.796 130.77V163.92H558.166V170.55H551.536V177.18H544.906V183.81H531.646V190.44H518.386V183.81H525.016V177.18H531.646V170.55H538.276V144.03H531.646V137.4H518.386V130.77H505.126V124.14H478.351V117.51H451.831V110.88H431.941V105.525H418.681V98.895H412.051V92.265H405.421V85.635H398.791V51.465H405.421V44.835H412.051V38.205H418.681V31.575H431.941V24.945H445.201V31.575H438.571V38.205H431.941V44.835H425.311V71.355H431.941V77.985H445.201V84.615H458.461V91.245H485.236V97.875H511.756V104.505H531.646V111.135H544.906V117.765H551.536V124.395H558.166V131.025L564.796 130.77Z" fill="black"/>
	<path d="M711.813 15L613.893 109.605V15H592.983V197.07H613.893V133.32L642.198 106.545L722.523 197.07H750.573L656.733 93.03L739.098 15H711.813Z" fill="black"/>
	<path d="M866.708 25.455H800.663V18.825H873.338V25.455H886.598V32.085H893.228V38.715H899.858V45.345H906.488V38.715H913.118V18.825H919.748V94.815H913.118V78.24H906.488V71.61H899.858V58.35H893.228V51.72H886.598V45.09H879.968V38.46H873.338V31.83H866.708V25.455ZM813.923 190.44H886.598V197.07H807.293V190.44H800.663V183.81H787.403V177.18H780.773V170.55H774.143V177.18H767.513V197.07H760.883V131.025H767.513V137.655H774.143V144.285H780.773V157.545H787.403V164.175H794.033V170.805H800.663V177.435H807.293V184.065H813.923V190.44ZM926.378 130.77V163.92H919.748V170.55H913.118V177.18H906.488V183.81H893.228V190.44H879.968V183.81H886.598V177.18H893.228V170.55H899.858V144.03H893.228V137.4H879.968V130.77H866.708V124.14H839.933V117.51H813.413V110.88H793.523V105.525H780.263V98.895H773.633V92.265H767.003V85.635H760.373V51.465H767.003V44.835H773.633V38.205H780.263V31.575H793.523V24.945H806.783V31.575H800.153V38.205H793.523V44.835H786.893V71.355H793.523V77.985H806.783V84.615H820.043V91.245H846.818V97.875H873.338V104.505H893.228V111.135H906.488V117.765H913.118V124.395H919.748V131.025L926.378 130.77Z" fill="black"/>
	<path d="M959 15V197.07H979.91V47.385H980.675L1084.21 197.07H1105.62V15H1084.71V163.155H1083.95L980.93 15H959Z" fill="black"/>
	<path d="M1142.28 15V197.07H1163.19V112.41H1258.82V94.305H1163.19V33.105H1264.17V15H1142.28Z" fill="black"/>
	<path d="M1275.43 15V33.105H1339.69V197.07H1360.34V33.105H1424.6V15H1275.43Z" fill="black"/>
</svg>
