<svg viewBox="0 0 64 36" fill="none"
	xmlns="http://www.w3.org/2000/svg">
	<path d="M11.05 25.29V36H12.805V28.62H12.865L16.015 36H17.53L20.68 28.62H20.74V36H22.495V25.29H20.44L16.81 33.69H16.75L13.105 25.29H11.05Z" fill="#171717"/>
	<path d="M30.3749 25.905H26.4899V25.515H30.7649V25.905H31.5449V26.295H31.9349V26.685H32.3249V27.075H32.7149V26.685H33.1049V25.515H33.4949V29.985H33.1049V29.01H32.7149V28.62H32.3249V27.84H31.9349V27.45H31.5449V27.06H31.1549V26.67H30.7649V26.28H30.3749V25.905ZM27.2699 35.61H31.5449V36H26.8799V35.61H26.4899V35.22H25.7099V34.83H25.3199V34.44H24.9299V34.83H24.5399V36H24.1499V32.115H24.5399V32.505H24.9299V32.895H25.3199V33.675H25.7099V34.065H26.0999V34.455H26.4899V34.845H26.8799V35.235H27.2699V35.61ZM33.8849 32.1V34.05H33.4949V34.44H33.1049V34.83H32.7149V35.22H31.9349V35.61H31.1549V35.22H31.5449V34.83H31.9349V34.44H32.3249V32.88H31.9349V32.49H31.1549V32.1H30.3749V31.71H28.7999V31.32H27.2399V30.93H26.0699V30.615H25.2899V30.225H24.8999V29.835H24.5099V29.445H24.1199V27.435H24.5099V27.045H24.8999V26.655H25.2899V26.265H26.0699V25.875H26.8499V26.265H26.4599V26.655H26.0699V27.045H25.6799V28.605H26.0699V28.995H26.8499V29.385H27.6299V29.775H29.2049V30.165H30.7649V30.555H31.9349V30.945H32.7149V31.335H33.1049V31.725H33.4949V32.115L33.8849 32.1Z" fill="#171717"/>
	<path d="M41.2879 25.905H37.4029V25.515H41.6779V25.905H42.4579V26.295H42.8479V26.685H43.2379V27.075H43.6279V26.685H44.0179V25.515H44.4079V29.985H44.0179V29.01H43.6279V28.62H43.2379V27.84H42.8479V27.45H42.4579V27.06H42.0679V26.67H41.6779V26.28H41.2879V25.905ZM38.1829 35.61H42.4579V36H37.7929V35.61H37.4029V35.22H36.6229V34.83H36.2329V34.44H35.8429V34.83H35.4529V36H35.0629V32.115H35.4529V32.505H35.8429V32.895H36.2329V33.675H36.6229V34.065H37.0129V34.455H37.4029V34.845H37.7929V35.235H38.1829V35.61ZM44.7979 32.1V34.05H44.4079V34.44H44.0179V34.83H43.6279V35.22H42.8479V35.61H42.0679V35.22H42.4579V34.83H42.8479V34.44H43.2379V32.88H42.8479V32.49H42.0679V32.1H41.2879V31.71H39.7129V31.32H38.1529V30.93H36.9829V30.615H36.2029V30.225H35.8129V29.835H35.4229V29.445H35.0329V27.435H35.4229V27.045H35.8129V26.655H36.2029V26.265H36.9829V25.875H37.7629V26.265H37.3729V26.655H36.9829V27.045H36.5929V28.605H36.9829V28.995H37.7629V29.385H38.5429V29.775H40.1179V30.165H41.6779V30.555H42.8479V30.945H43.6279V31.335H44.0179V31.725H44.4079V32.115L44.7979 32.1Z" fill="#171717"/>
	<path d="M46.426 25.29V36H48.181V31.26H53.416V29.76H48.181V26.79H53.731V25.29H46.426Z" fill="#171717"/>
	<path d="M54.3315 25.29V26.79H57.8415V36H59.5965V26.79H63.1065V25.29H54.3315Z" fill="#171717"/>
</svg>
